<?xml version="1.0" encoding="UTF-8"?>
<svg width="1820px" height="180px" viewBox="0 0 1820 180" version="1.1" xmlns="http://www.w3.org/2000/svg" xmlns:xlink="http://www.w3.org/1999/xlink">
    <title>Group 5</title>
    <g id="Page-1" stroke="none" stroke-width="1" fill="none" fill-rule="evenodd">
        <g id="Artboard-Copy" transform="translate(-3562.000000, -619.000000)">
            <g id="Group-5" transform="translate(3562.000000, 619.000000)">
                <rect id="Rectangle-Copy-6" fill="#FFFFFF" x="0" y="0" width="1820" height="180"></rect>
                <g id="AnyWhere-Anytime-Copy" transform="translate(38.000000, 32.720000)" fill="#000000" fill-rule="nonzero">
                    <path d="M86.24,113.28 L123.68,113.28 L82.4,0 L41.44,0 L4.54747351e-13,113.28 L37.28,113.28 L42.88,96.16 L80.64,96.16 L86.24,113.28 Z M72,69.44 L51.52,69.44 L61.76,37.92 L72,69.44 Z" id="Shape"></path>
                    <polygon id="Path" points="204.8 0 204.8 57.92 167.2 0 131.68 0 131.68 113.28 167.2 113.28 167.2 56.32 204.8 113.28 240.32 113.28 240.32 0"></polygon>
                    <polygon id="Path" points="288.96 78.88 288.96 113.28 324.48 113.28 324.48 78.88 365.12 0 325.12 0 307.04 40.16 288.96 0 248.32 0"></polygon>
                    <polygon id="Path" points="395.84 113.28 440 113.28 453.12 48.96 466.24 113.28 510.4 113.28 536.32 0 498.08 0 487.84 71.36 472.48 0 433.76 0 418.4 71.36 408.16 0 369.92 0"></polygon>
                    <polygon id="Path" points="618.4 113.28 653.92 113.28 653.92 0 618.4 0 618.4 40.8 584.64 40.8 584.64 0 549.12 0 549.12 113.28 584.64 113.28 584.64 69.12 618.4 69.12"></polygon>
                    <polygon id="Path" points="745.44 0 669.92 0 669.92 113.28 745.44 113.28 745.44 84.96 705.44 84.96 705.44 68.96 740.64 68.96 740.64 42.24 705.44 42.24 705.44 28.32 745.44 28.32"></polygon>
                    <path d="M818.72,39.36 C818.72,46.08 815.2,48.96 808.48,48.96 L794.4,48.96 L794.4,29.76 L808.48,29.76 C815.2,29.76 818.72,33.6 818.72,39.36 Z M758.88,0 L758.88,113.28 L794.4,113.28 L794.4,72.64 L794.56,72.64 L815.84,113.28 L854.88,113.28 L830.24,69.92 C846.4,64.64 854.72,52 854.72,37.12 C854.72,16.32 840.16,0 811.68,0 L758.88,0 Z" id="Shape"></path>
                    <polygon id="Path" points="941.6 0 866.08 0 866.08 113.28 941.6 113.28 941.6 84.96 901.6 84.96 901.6 68.96 936.8 68.96 936.8 42.24 901.6 42.24 901.6 28.32 941.6 28.32"></polygon>
                    <path d="M1060.48,113.28 L1097.92,113.28 L1056.64,0 L1015.68,0 L974.24,113.28 L1011.52,113.28 L1017.12,96.16 L1054.88,96.16 L1060.48,113.28 Z M1046.24,69.44 L1025.76,69.44 L1036,37.92 L1046.24,69.44 Z" id="Shape"></path>
                    <polygon id="Path" points="1179.04 0 1179.04 57.92 1141.44 0 1105.92 0 1105.92 113.28 1141.44 113.28 1141.44 56.32 1179.04 113.28 1214.56 113.28 1214.56 0"></polygon>
                    <polygon id="Path" points="1263.2 78.88 1263.2 113.28 1298.72 113.28 1298.72 78.88 1339.36 0 1299.36 0 1281.28 40.16 1263.2 0 1222.56 0"></polygon>
                    <polygon id="Path" points="1340.96 28.16 1370.72 28.16 1370.72 113.28 1406.24 113.28 1406.24 28.16 1436.32 28.16 1436.32 0 1340.96 0"></polygon>
                    <polygon id="Path" points="1445.92 113.28 1481.44 113.28 1481.44 0 1445.92 0"></polygon>
                    <polygon id="Path" points="1497.44 113.28 1532.96 113.28 1532.96 56.8 1550.4 113.28 1580.8 113.28 1598.24 56.8 1598.24 113.28 1633.6 113.28 1633.6 0 1590.24 0 1565.92 68 1540.96 0 1497.44 0"></polygon>
                    <polygon id="Path" points="1725.12 0 1649.6 0 1649.6 113.28 1725.12 113.28 1725.12 84.96 1685.12 84.96 1685.12 68.96 1720.32 68.96 1720.32 42.24 1685.12 42.24 1685.12 28.32 1725.12 28.32"></polygon>
                </g>
            </g>
        </g>
    </g>
</svg>